<?xml version="1.0" encoding="UTF-8"?>
<!DOCTYPE svg PUBLIC "-//W3C//DTD SVG 1.1//EN" "http://www.w3.org/Graphics/SVG/1.1/DTD/svg11.dtd">
<!-- Creator: CorelDRAW -->
<svg xmlns="http://www.w3.org/2000/svg" xml:space="preserve" width="554.984mm" height="236.648mm" version="1.1" style="shape-rendering:geometricPrecision; text-rendering:geometricPrecision; image-rendering:optimizeQuality; fill-rule:evenodd; clip-rule:evenodd"
viewBox="0 0 5602.53 2388.95"
 xmlns:xlink="http://www.w3.org/1999/xlink"
 xmlns:xodm="http://www.corel.com/coreldraw/odm/2003">
 <defs>
  <style type="text/css">
   <![CDATA[
    .fil1 {fill:#FEFEFE;fill-rule:nonzero}
    .fil0 {fill:#D6B242;fill-rule:nonzero}
   ]]>
  </style>
 </defs>
 <g id="Слой_x0020_1">
  <metadata id="CorelCorpID_0Corel-Layer"/>
  <g id="_1821717927952">
   <path class="fil0" d="M1648.51 1091.61c-12.87,53.85 -34.04,105.84 -52.24,162.17 0,0 -115.37,12.75 -236.32,59.55 26.12,-21.54 35.77,-45.93 43.95,-87.03 0.25,-2.6 0.99,-5.45 1.86,-8.06 37.88,-133.68 41.1,-269.98 28.59,-407.14 -12.5,-135.55 -53.6,-260.58 -141.99,-366.05 -89.5,-106.83 -204.01,-150.78 -341.54,-120.94 -110.92,23.77 -182.97,97.79 -234.96,194.6 -99.88,186.32 -88.53,385.11 -74.03,586.4 1.24,17.33 8.05,22.41 25.01,25.63 7.3,1.48 14.6,2.97 21.79,4.46 -137.66,-25.01 -255.75,10.65 -255.75,10.65 -33.42,-90.49 -44.32,-189.53 -30.58,-290.79 29.83,-216.39 127.38,-393.04 315.79,-508.78 215.78,-132.71 436.74,-132.46 649.91,5.82 234.35,152.26 346.86,459.64 280.51,739.53z"/>
   <path class="fil0" d="M1939.86 1403.55c-0.49,3.96 -0.99,7.92 -1.74,11.76 -16.08,110.8 -57.68,212.55 -112.15,309.11 0,0 -0.49,0.74 -1.37,2.1 -0.49,0.74 -0.99,1.49 -1.6,2.35 0,0.12 -0.13,0.25 -0.25,0.37 -2.24,3.34 -5.57,8.3 -10.15,14.73 -12.38,17.58 -33.42,45.93 -62.14,79.97 -0.25,0.37 -0.49,0.74 -0.74,0.99 -33.8,40.11 -78.11,87.89 -131.84,135.8 -30.7,27.48 -64.62,55.09 -101.38,81.08l0.73 0c-4.7,3.22 -9.52,6.44 -14.22,9.53 -125.28,83.81 -261.82,147.81 -398.61,212.31 -68.96,32.43 -124.04,29.21 -191.38,-3.47 -150.04,-72.54 -302.07,-141.12 -437.36,-239.78 -56.82,-41.47 -108.44,-90.25 -162.41,-135.8 -1.99,-1.73 -3.84,-3.34 -5.82,-4.95 0.49,-0.12 0.87,-0.37 1.36,-0.49 -19.7,-23.64 -37.51,-47.29 -53.74,-70.31 -15.71,-22.28 -29.7,-43.95 -42.2,-64.37 -0.49,-0.87 -0.99,-1.61 -1.49,-2.35 -11.64,-19.06 -21.91,-37.01 -30.7,-53.35 -15.23,-28.1 -26.49,-51.5 -34.04,-67.84 -2.35,-5.32 -4.46,-9.9 -5.94,-13.62 -1.98,-2.97 -3.47,-6.56 -4.71,-11.02 -0.12,-0.25 -0.12,-0.37 -0.12,-0.37 -16.22,-58.06 -32.56,-116.12 -47.78,-174.42 -0.25,-0.74 -0.37,-1.48 -0.49,-2.23 -1.75,-6.31 -2.43,-19.56 -2.78,-26.06 -0.36,-6.98 -5.92,-1.05 -1.04,-19.5 -7.3,-51.62 -4.23,-92.6 -4.23,-92.6l0 -1202.27 1863.18 0 0 1207.71c0,0 0.75,29.22 -3.1,101.39 1.11,4.33 1,9.28 0.26,15.6zm81.32 -1374.96c0,-9.04 -0.85,-17.95 -1.22,-28.6l-2018.43 0c-0.62,8.05 -0.99,12.5 -0.99,17.08 -0.26,397.5 -1.24,794.99 0.37,1192.86 0.36,85.29 3.59,172.2 19.92,255.51 12.27,62.52 29.85,121.69 52.61,177.64 10.04,24.63 20.93,48.53 32.94,71.8 21.28,41.96 45.8,81.83 73.28,119.83 16.22,22.78 33.55,44.69 51.99,66.1 56.82,66.11 123.05,125.9 197.57,179.87 175.03,126.51 370.26,217.26 566.1,305.76 8.41,4.21 21.78,2.6 31.2,-1.24 158.95,-67.96 314.43,-143.35 461.87,-234.34 59.28,-36.89 116.12,-76.63 168.59,-120.57 24.76,-20.55 48.79,-41.97 71.94,-64.74 45.55,-44.32 87.89,-92.72 125.52,-145.83 0.25,-0.37 0.49,-0.62 0.74,-0.99 17.44,-24.51 33.3,-49.52 47.78,-75.02 0.25,-0.25 0.37,-0.49 0.5,-0.74 82.44,-145.7 117.11,-306.63 117.48,-476.6 1.22,-412.6 0.62,-825.2 0.24,-1237.8z"/>
   <path class="fil0" d="M1939.91 1387.96c-1.49,-6.19 -5.32,-10.89 -13,-15.84 -115,-75.02 -241.02,-91.36 -372.49,-64.99 -136.54,26.86 -264.42,80.71 -389.82,140.38 -88.76,42.32 -176.64,86.9 -266.39,127.26 -47.04,21.42 -96.7,35.9 -151.65,55.95 -23.04,-4.94 -100.53,-19.92 -249.82,-32.8 23.9,1.73 47.67,2.6 70.93,-0.74 59.3,-8.31 117.6,-26 175.66,-42.35 125.03,-35.52 242.02,-89.12 352.06,-157.95 0,-3.84 -174.8,-112.9 -265.16,-159.32 -65.36,-33.67 -136.54,-54.22 -211.32,-57.07 -202.27,-8.67 -365.68,90 -526.35,194.6 -4.71,2.97 -8.68,11.02 -9.67,18.08 -7.31,-51.62 -3.1,-112.03 -3.1,-112.03 201.07,-96.24 354.26,-210.5 586.29,-168.36 43.68,9.04 87.26,18.94 129.48,32.43 127,41.33 237.55,114.14 346.24,189.4 26.37,18.32 43.33,23.77 77.63,12.5 23.77,-7.68 44.8,-14.73 70.19,-27.23 146.79,-72.07 308.81,-111.22 473.12,-86.53 61.9,9.29 121.57,35.28 180.24,53.23 0,0 0.76,29.21 -3.1,101.38z"/>
   <path class="fil0" d="M1812.25 1743.98c-12.38,17.58 -33.42,45.93 -62.14,79.97 -0.62,0 -0.99,0.12 -1.48,0.12 -0.11,-0.12 -0.11,-0.12 -0.25,-0.25 -1.24,0.25 -2.6,0.49 -3.84,0.74 -5.8,1.12 -11.88,2.23 -17.95,2.48 -93.57,6.07 -187.54,18.94 -281.13,16.71 -147.44,-3.84 -290.78,-39.12 -433.76,-73.41 -179.87,-42.96 -356.77,-97.55 -543.69,-106.22 -94.57,-4.33 -188.16,-1.36 -285.83,24.02 0,0 -0.61,0.25 -1.86,0.62 -15.23,-28.1 -26.49,-51.5 -34.04,-67.84 9.03,-2.23 15.47,-3.59 18.08,-4.21 0.25,0 0.49,-0.12 0.74,-0.12 2.35,-0.37 4.95,-0.87 7.69,-1.49 86.52,-21.17 174.66,-26.61 263.42,-21.79 19.31,0.99 38.62,2.97 58.06,4.46 0.62,0 1.24,0.13 1.86,0.13 149.29,12.87 226.79,27.85 249.81,32.8 -0.11,0.13 -0.11,0.13 -0.25,0.13 0.74,0.12 1.36,0.25 2.11,0.37 1.73,0.37 3.34,0.74 4.83,0.99 0.62,0.12 0.86,0.25 0.86,0.25 10.65,1.98 17.33,2.97 23.89,4.83 112.53,27.85 225.05,57.44 338.2,83.31 124.04,28.22 249.44,57.69 377.69,52.61 102.25,-4.21 203.89,-17.58 305.77,-28.59 0.49,0 0.87,-0.12 1.36,-0.25 0,0 4.58,-0.12 11.88,-0.37z"/>
   <path class="fil1" d="M2716.97 314.48c78.93,0 145.03,26.39 198.18,79.05 53.15,52.66 79.78,117.55 79.78,194.55 0,76.39 -26.51,141.16 -79.54,194.31 -53.15,53.15 -117.79,79.78 -194.19,79.78 -77.24,0 -142.49,-26.51 -195.64,-79.42 -53.15,-52.91 -79.78,-116.95 -79.78,-192.13 0,-50.12 12.11,-96.49 36.32,-139.35 24.21,-42.74 57.26,-76.27 99.15,-100.48 41.77,-24.21 87.04,-36.32 135.71,-36.32zm2.3 50.85c-38.5,0 -75.06,10.05 -109.68,30.14 -34.5,20.1 -61.5,47.09 -80.99,81.11 -19.37,34.14 -29.06,72.03 -29.06,113.92 0,61.86 21.43,114.16 64.41,156.78 42.98,42.73 94.79,64.04 155.33,64.04 40.56,0 77.97,-9.81 112.35,-29.42 34.5,-19.61 61.38,-46.49 80.63,-80.51 19.25,-34.02 28.93,-71.79 28.93,-113.44 0,-41.4 -9.69,-78.81 -28.93,-112.23 -19.25,-33.41 -46.49,-60.17 -81.48,-80.26 -34.99,-20.1 -72.15,-30.14 -111.5,-30.14zm383.29 -37.77l104.12 0c57.99,0 97.34,2.42 117.92,7.14 31.11,7.02 56.29,22.15 75.66,45.52 19.49,23.25 29.18,51.94 29.18,85.96 0,28.33 -6.66,53.27 -20.1,74.7 -13.32,21.55 -32.45,37.77 -57.38,48.79 -24.82,11.02 -59.2,16.59 -103.03,16.83l187.77 242.61 -64.04 0 -187.77 -242.61 -30.02 0 0 242.61 -52.3 0 0 -521.54zm52.3 50.85l0 177.24 90.07 0.73c34.99,0 60.77,-3.27 77.48,-9.93 16.71,-6.66 29.78,-17.19 39.22,-31.72 9.32,-14.53 14.04,-30.75 14.04,-48.79 0,-17.43 -4.72,-33.41 -14.28,-47.7 -9.44,-14.29 -21.91,-24.45 -37.41,-30.63 -15.37,-6.17 -41.04,-9.2 -76.88,-9.2l-92.25 0zm385.71 470.7l0 -521.54 108.23 0c77.97,0 134.62,6.3 169.85,18.77 50.6,17.8 90.19,48.43 118.64,92.25 28.45,43.7 42.73,95.76 42.73,156.29 0,52.3 -11.26,98.18 -33.9,137.89 -22.52,39.71 -51.94,69.13 -87.89,88.01 -36.08,18.89 -86.68,28.33 -151.69,28.33l-165.98 0zm50.12 -49.39l60.17 0c71.91,0 121.67,-4.48 149.51,-13.44 39.1,-12.83 69.98,-35.71 92.37,-68.88 22.4,-33.29 33.53,-73.85 33.53,-121.79 0,-50.24 -12.1,-93.34 -36.44,-128.93 -24.21,-35.71 -58.11,-60.17 -101.45,-73.37 -32.57,-9.93 -86.2,-14.89 -160.89,-14.89l-36.8 0 0 421.3zm703.99 -472.15l243.34 521.54 -56.05 0 -81.35 -171.43 -226.15 0 -80.99 171.43 -58.11 0 246.24 -521.54 13.07 0zm-6.54 109.32l-89.71 189.95 179.05 0 -89.34 -189.95zm-1819.84 570.64l103.99 0c59.56,0 99.88,2.57 120.7,7.75 29.77,7.4 54.05,22.45 73,45.28 18.94,22.81 28.45,51.45 28.45,85.96 0,34.75 -9.21,63.31 -27.72,85.96 -18.41,22.51 -43.82,37.7 -76.15,45.52 -23.71,5.73 -67.92,8.47 -132.68,8.47l-37.29 0 0 242.61 -52.3 0 0 -521.54zm52.3 50.85l0 177.24 88.38 1.09c35.71,0.44 61.87,-3.27 78.45,-9.81 16.58,-6.53 29.67,-16.95 39.1,-31.48 9.44,-14.53 14.16,-30.87 14.16,-48.79 0,-17.43 -4.72,-33.54 -14.16,-48.06 -9.44,-14.53 -22.03,-24.82 -37.53,-30.99 -15.5,-6.17 -40.8,-9.2 -76.15,-9.2l-92.25 0zm380.5 -50.85l104.12 0c57.99,0 97.33,2.47 117.92,7.14 31.1,7.06 56.23,22.21 75.66,45.52 19.42,23.3 29.18,51.94 29.18,85.96 0,28.33 -6.73,53.23 -20.1,74.7 -13.38,21.5 -32.46,37.75 -57.38,48.79 -24.83,10.99 -59.2,16.59 -103.03,16.83l187.77 242.61 -64.04 0 -187.77 -242.61 -30.02 0 0 242.61 -52.3 0 0 -521.54zm52.3 50.85l0 177.24 90.07 0.73c34.99,0.28 60.78,-3.27 77.48,-9.93 16.71,-6.66 29.83,-17.17 39.22,-31.72 9.36,-14.5 14.04,-30.75 14.04,-48.79 0,-17.43 -4.77,-33.39 -14.28,-47.7 -9.48,-14.26 -21.92,-24.44 -37.41,-30.63 -15.38,-6.15 -41.05,-9.2 -76.88,-9.2l-92.25 0zm386.44 -50.85l298.54 0 0 50.85 -246.24 0 0 163.44 244.07 0 0 50.85 -244.07 0 0 205.57 244.07 0 0 50.85 -296.36 0 0 -521.54zm366.22 521.54l72.27 -521.54 10.78 0 212.22 427.84 210.89 -427.84 7.87 0 75.06 521.54 -50.48 0 -52.3 -373.36 -184.75 373.36 -13.56 0 -186.68 -376.27 -50 376.27 -51.33 0zm682.8 -521.54l52.3 0 0 521.54 -52.3 0 0 -521.54zm173.61 0l52.3 0 0 315.01c0,37.28 0.94,60.63 2.18,69.85 2.75,20.55 8.6,37.78 18.04,51.57 9.44,13.8 23.97,25.43 43.58,34.75 19.61,9.32 39.35,14.04 59.32,14.04 17.19,0 33.77,-3.66 49.64,-11.02 15.72,-7.29 29.03,-17.46 39.71,-30.51 10.62,-12.98 18.45,-28.68 23.36,-47.09 3.55,-13.3 5.33,-40.44 5.33,-81.6l0 -315.01 52.3 0 0 314.77c0,46.6 -4.6,84.26 -13.68,112.95 -9.08,28.69 -27.37,53.75 -54.6,74.94 -27.37,21.3 -60.41,31.96 -99.27,31.96 -42.13,0 -78.19,-10.08 -108.23,-30.14 -30.12,-20.12 -50.14,-46.64 -60.41,-79.78 -6.31,-20.37 -9.56,-56.9 -9.56,-109.93l0 -314.77zm450.96 521.54l72.28 -521.54 10.78 0 212.22 427.84 210.89 -427.84 7.87 0 75.06 521.54 -50.48 0 -52.3 -373.36 -184.74 373.36 -13.56 0 -186.68 -376.27 -50 376.27 -51.33 0z"/>
   <path class="fil1" d="M2445.78 1927.01l0 -236.07 90.39 0c17.04,0 31.27,2.7 42.57,8.01 11.36,5.36 19.85,12.66 25.48,21.86 5.62,9.25 8.49,19.69 8.49,31.38 0,9.58 -1.84,17.8 -5.57,24.61 -3.68,6.76 -8.6,12.28 -14.87,16.5 -6.22,4.22 -13.15,7.3 -20.83,9.14l0 2.27c8.38,0.49 16.39,3.03 24.13,7.68 7.74,4.65 14.07,11.2 18.99,19.64 4.92,8.49 7.36,18.66 7.36,30.67 0,12.22 -2.97,23.21 -8.87,32.89 -5.9,9.74 -14.82,17.42 -26.72,22.99 -11.9,5.63 -26.89,8.44 -44.95,8.44l-95.59 0zm42.79 -35.7l45.98 0c15.53,0 26.72,-3.03 33.59,-8.98 6.87,-5.95 10.33,-13.58 10.33,-22.99 0,-6.98 -1.73,-13.31 -5.19,-18.93 -3.46,-5.68 -8.38,-10.12 -14.77,-13.36 -6.38,-3.3 -13.96,-4.92 -22.83,-4.92l-47.12 0 0 69.19zm0 -99.97l42.3 0c7.36,0 14.01,-1.35 19.91,-4.06 5.95,-2.76 10.6,-6.65 14.01,-11.68 3.46,-5.03 5.14,-10.98 5.14,-17.91 0,-9.14 -3.19,-16.66 -9.63,-22.61 -6.38,-5.9 -15.9,-8.87 -28.51,-8.87l-43.22 0 0 65.13zm399.93 -100.4l42.79 0 0 154.23c0,16.93 -4,31.81 -11.95,44.63 -7.95,12.82 -19.1,22.83 -33.49,30.02 -14.39,7.19 -31.16,10.77 -50.36,10.77 -19.31,0 -36.14,-3.57 -50.47,-10.77 -14.39,-7.19 -25.53,-17.2 -33.43,-30.02 -7.9,-12.82 -11.9,-27.7 -11.9,-44.63l0 -154.23 42.79 0 0 150.66c0,9.85 2.16,18.61 6.49,26.29 4.38,7.68 10.49,13.69 18.39,18.01 7.9,4.38 17.31,6.55 28.13,6.55 10.82,0 20.23,-2.16 28.18,-6.55 7.95,-4.33 14.07,-10.33 18.39,-18.01 4.27,-7.68 6.44,-16.44 6.44,-26.29l0 -150.66zm169.86 236.07l0 -236.07 88.55 0c18.12,0 33.38,3.19 45.71,9.47 12.33,6.33 21.64,15.15 27.97,26.45 6.38,11.36 9.52,24.56 9.52,39.6 0,15.15 -3.19,28.24 -9.63,39.38 -6.38,11.09 -15.85,19.64 -28.29,25.7 -12.44,6.01 -27.75,9.03 -45.87,9.03l-63.02 0 0 -35.49 57.29 0c10.6,0 19.26,-1.51 26.02,-4.44 6.76,-2.98 11.79,-7.3 15.04,-13.04 3.3,-5.73 4.92,-12.77 4.92,-21.15 0,-8.38 -1.68,-15.53 -4.98,-21.48 -3.3,-5.95 -8.33,-10.5 -15.09,-13.63 -6.76,-3.09 -15.47,-4.65 -26.18,-4.65l-39.17 0 0 200.32 -42.79 0zm121.99 -106.95l58.42 106.95 -47.71 0 -57.39 -106.95 46.69 0zm200.04 106.95l-45.66 0 83.09 -236.07 52.8 0 83.2 236.07 -45.6 0 -63.08 -187.66 -1.84 0 -62.91 187.66zm1.52 -92.56l124.47 0 0 34.35 -124.47 0 0 -34.35zm283.57 92.56l0 -236.07 90.39 0c17.04,0 31.27,2.7 42.57,8.01 11.36,5.36 19.85,12.66 25.48,21.86 5.63,9.25 8.49,19.69 8.49,31.38 0,9.58 -1.84,17.8 -5.57,24.61 -3.68,6.76 -8.6,12.28 -14.87,16.5 -6.22,4.22 -13.15,7.3 -20.83,9.14l0 2.27c8.39,0.49 16.39,3.03 24.13,7.68 7.74,4.65 14.06,11.2 18.99,19.64 4.92,8.49 7.36,18.66 7.36,30.67 0,12.22 -2.97,23.21 -8.87,32.89 -5.9,9.74 -14.82,17.42 -26.72,22.99 -11.9,5.63 -26.89,8.44 -44.95,8.44l-95.59 0zm42.79 -35.7l45.98 0c15.53,0 26.72,-3.03 33.59,-8.98 6.87,-5.95 10.33,-13.58 10.33,-22.99 0,-6.98 -1.73,-13.31 -5.19,-18.93 -3.46,-5.68 -8.38,-10.12 -14.77,-13.36 -6.38,-3.3 -13.96,-4.92 -22.83,-4.92l-47.12 0 0 69.19zm0 -99.97l42.3 0c7.36,0 14.01,-1.35 19.91,-4.06 5.95,-2.76 10.6,-6.65 14.01,-11.68 3.46,-5.03 5.14,-10.98 5.14,-17.91 0,-9.14 -3.19,-16.66 -9.63,-22.61 -6.38,-5.9 -15.9,-8.87 -28.51,-8.87l-43.22 0 0 65.13zm281.46 135.67l-45.66 0 83.09 -236.07 52.8 0 83.2 236.07 -45.6 0 -63.08 -187.66 -1.84 0 -62.91 187.66zm1.52 -92.56l124.47 0 0 34.35 -124.47 0 0 -34.35zm243.48 -143.51l48.31 0 57.72 104.46 2.33 0 57.72 -104.46 48.31 0 -85.85 148.01 0 88.07 -42.68 0 0 -88.07 -85.85 -148.01z"/>
   <path class="fil0" d="M1702.9 1952.52c-33.45,29.96 -70.43,60.03 -110.47,88.35l-0.14 0c-45.05,3.11 -90.11,5.26 -135.29,4.18 -160.67,-4.18 -317.13,-42.63 -472.93,-79.98 -33.18,-7.97 -66.1,-16.07 -99.28,-24.83 -30.62,-7.67 -256.17,-81.07 -396.44,-89.43 -24.01,-1.35 -49.65,-2.7 -75.4,-3.11 -48.02,-1.08 -96.33,1.35 -136.51,15.92 -21.46,-25.76 -40.88,-51.53 -58.56,-76.62l12.96 -4.32c1.89,0.14 3.64,0.14 5.26,0 55.57,-3.77 111.15,-13.62 166.72,-13.89 140.69,-1.08 275.58,33.72 410.73,72.57 93.49,26.98 188.73,47.9 283.69,69.61 135.55,30.75 271.81,62.86 411.82,57.19 64.75,-2.55 129.08,-8.62 193.84,-15.65z"/>
  </g>
 </g>
</svg>
